<?xml version="1.0" encoding="UTF-8"?>
<svg id="Vrstva_1" data-name="Vrstva 1" xmlns="http://www.w3.org/2000/svg" xmlns:xlink="http://www.w3.org/1999/xlink" width="526.51" height="552.31" viewBox="0 0 526.51 552.31">
  <defs>
    <linearGradient id="Nepojmenovaný_přechod_99" data-name="Nepojmenovaný přechod 99" x1="467.19" y1="230.11" x2="80.61" y2="616.69" gradientUnits="userSpaceOnUse">
      <stop offset="0" stop-color="#f60"/>
      <stop offset="1" stop-color="#ff8533"/>
    </linearGradient>
    <linearGradient id="Nepojmenovaný_přechod_99-2" data-name="Nepojmenovaný přechod 99" x1="432.88" y1="-42.24" x2="60.87" y2="329.77" xlink:href="#Nepojmenovaný_přechod_99"/>
  </defs>
  <path d="M394.33,335.62c-55.58-42.22-109.34-86.95-166.69-126.81-2.61-1.67-2.91-6.6.04-8.05l165.37-.37c57.35,7.2,104.7,46.45,123.09,100.91,41.9,124.06-48.57,245.13-175.92,251H22.15c-12.13-.35-17.65-12.58-9.88-21.96l85.89-103.11c3.99-4.25,9.09-6.77,14.99-7.01l241.08.08c43.52-.29,67.48-50.82,40.11-84.69Z" style="fill: url(#Nepojmenovaný_přechod_99);"/>
  <path d="M309.38,347.56c2.93,3.61.93,9.16-4.17,8.71-55.16-2.91-114.31,3.9-169-.01C32.95,348.88-18.73,241.74,6.19,148.28,27.44,68.58,97.89,8.93,180.15,1.23c87.01-.85,174.09,1.26,261.09.09,15.66-.21,48.94-8.51,39.29,19.29l-77.85,101.15c-5.47,5.94-14.79,6.13-22.45,6.55-65.12,3.6-133.46-2.89-198.91.09-47.06,5.53-73.34,58.78-39.17,95.91l167.23,123.25Z" style="fill: url(#Nepojmenovaný_přechod_99-2);"/>
</svg>